Coordinates
version=1
nRows=13
nColumns=36
inDegrees=yes

Units are S.I. units (second, meters, Newtons, ...)
If the header above contains a line with 'inDegrees', this indicates whether rotational values are in degrees (yes) or radians (no).

endheader
time	pelvis_tilt	pelvis_list	pelvis_rotation	pelvis_tx	pelvis_ty	pelvis_tz	hip_flexion_r	hip_adduction_r	hip_rotation_r	knee_angle_r	knee_angle_r_beta	ankle_angle_r	subtalar_angle_r	mtp_angle_r	hip_flexion_l	hip_adduction_l	hip_rotation_l	knee_angle_l	knee_angle_l_beta	ankle_angle_l	subtalar_angle_l	mtp_angle_l	lumbar_extension	lumbar_bending	lumbar_rotation	arm_flex_r	arm_add_r	arm_rot_r	elbow_flex_r	pro_sup_r	arm_flex_l	arm_add_l	arm_rot_l	elbow_flex_l	pro_sup_l
      4.18333330	    -11.83832849	     -4.59293840	     -1.41097276	     -0.03909946	      0.94155146	     -0.01974113	     57.28746813	      0.08456978	      1.49532871	     17.01489174	      0.29696588	      0.74304225	    -13.44831771	     -7.49999987	     39.88649608	      2.34937132	      3.65759248	     46.51991433	      0.81192567	     15.69054455	     -0.95663483	     -7.49999987	    -17.84895103	      0.65985654	      2.82849597	     72.81275959	      2.45444823	     69.34942419	    126.72077803	     87.07135641	     72.46694012	     -0.95355971	     75.25879682	    123.07268367	     75.43862204
      4.20000000	    -11.97812115	     -4.45320448	     -1.26342640	     -0.04259203	      0.93521826	     -0.02004617	     58.07665365	     -0.22069174	      1.12152137	     17.18455322	      0.29992703	      1.00144411	    -12.78270173	     -7.49999987	     41.07288230	      2.63800365	      3.64711963	     47.79282294	      0.83414212	     16.80588424	     -1.66702528	     -7.49999987	    -18.24228209	      0.52118867	      2.76192805	     73.55843167	      2.17231633	     69.06802781	    126.65612568	     85.30736558	     73.59292039	     -1.11719959	     75.19287289	    122.82201019	     74.30920826
      4.21666670	    -12.09069078	     -4.31894172	     -1.17615775	     -0.04303184	      0.93158238	     -0.02061942	     58.68845768	     -0.40700028	      1.10332082	     17.18632269	      0.29995792	      0.62057753	    -13.02000849	     -7.49999987	     41.98015745	      2.91363097	      3.73777986	     48.88821855	      0.85326038	     17.81934514	     -2.43192405	     -7.49999987	    -18.71378917	      0.43230815	      2.75112870	     74.42192032	      1.91792693	     68.94309841	    126.60489861	     84.96352352	     74.66462488	     -1.20702205	     75.32353691	    122.86854967	     74.01357005
      4.23333330	    -12.21123495	     -4.23026015	     -1.09596266	     -0.04396805	      0.92671258	     -0.02099084	     59.12969518	     -0.52077783	      1.15659800	     17.13759871	      0.29910752	      0.72842906	    -12.69661920	     -7.49999987	     42.73714809	      3.14847833	      3.84422359	     49.94321679	      0.87167357	     18.35719310	     -2.60502765	     -7.49999987	    -18.99764251	      0.51062574	      2.78779134	     75.11726269	      1.68343135	     68.98127946	    126.60895811	     84.52232346	     75.39017214	     -1.11105803	     76.04008215	    122.89558033	     73.76292362
      4.25000000	    -12.20826295	     -4.11733067	     -1.06174343	     -0.04527977	      0.92202011	     -0.02200764	     59.58868901	     -0.64748243	      1.41153981	     17.36652912	      0.30310311	      0.89339287	    -12.22788060	     -7.49999987	     43.47209992	      3.39726242	      3.85706831	     51.01516456	      0.89038259	     19.40679516	     -2.89303311	     -7.49999987	    -19.34292984	      0.53323225	      2.87054029	     75.72354543	      1.49505970	     68.90131271	    126.38628422	     84.06172241	     76.07438238	     -1.08841865	     76.32077256	    122.61284365	     73.50667280
      4.26666670	    -12.30184363	     -3.93569593	     -1.13466071	     -0.04750883	      0.91904460	     -0.02319861	     60.27415684	     -0.84950850	      1.58996269	     17.93639641	      0.31304917	      1.25270058	    -11.75161320	     -7.49999987	     44.08265338	      3.73596407	      3.79308850	     51.87337942	      0.90536127	     20.26357228	     -3.65523245	     -7.49999987	    -19.66487506	      0.48414826	      2.98734986	     76.25853420	      1.25472464	     69.02943302	    126.34494279	     89.40307624	     76.77776628	     -0.73548183	     76.79836514	    122.48065838	     77.71594833
      4.28333330	    -12.47682867	     -3.89086424	     -1.31488838	     -0.04833441	      0.91507102	     -0.02332403	     60.92333031	     -0.84322208	      1.65007261	     18.33791739	      0.32005704	      1.56468319	    -11.09594681	     -7.49999987	     44.77420084	      3.85933813	      3.84319102	     52.72451273	      0.92021634	     20.91155811	     -4.05878679	     -7.49999987	    -19.89817593	      0.49307436	      2.96560160	     76.62512512	      1.25588845	     69.37022082	    126.54945376	     87.34055619	     77.08399149	     -0.58590448	     77.32394582	    122.53866918	     76.22210089
      4.30000000	    -12.67436797	     -3.91501758	     -1.58966261	     -0.04678179	      0.90869207	     -0.02245661	     61.66850466	     -0.61948552	      1.94860500	     18.92201030	      0.33025138	      1.92415519	    -11.08884100	     -7.49999987	     45.47439189	      3.73598454	      3.72940941	     53.77047013	      0.93847174	     21.53834422	     -4.33163079	     -7.49999987	    -20.11320195	      0.42693597	      2.99027341	     77.09895294	      1.32208363	     69.85774468	    126.78297384	     86.68556169	     77.80122611	     -0.43058831	     78.09790177	    122.55607678	     75.99088495
      4.31666670	    -12.87527775	     -3.96570817	     -1.67313186	     -0.04929119	      0.90384624	     -0.02325726	     62.58021036	     -0.58163402	      1.96248378	     19.59252690	      0.34195410	      2.22741188	    -10.83136225	     -7.49999987	     46.49255045	      3.71075107	      3.65436925	     55.13046550	      0.96220814	     22.08997940	     -4.51659830	     -7.49999987	    -20.41084959	      0.49764150	      3.06339859	     77.55107703	      1.24516495	     69.75140336	    127.03796991	     85.89909376	     78.42353602	     -0.32918810	     78.28562705	    122.63720457	     75.47920538
      4.33333330	    -12.98507562	     -3.97761271	     -1.73614699	     -0.05026906	      0.89916708	     -0.02464001	     63.34311560	     -0.56232155	      1.91302059	     20.17378956	      0.35209905	      2.15872690	    -11.34875113	     -7.49999987	     47.36555720	      3.74908995	      3.55053547	     56.43086974	      0.98490448	     22.53375741	     -4.74247908	     -7.49999987	    -20.59437773	      0.40598133	      3.20569164	     77.98627956	      0.86896193	     69.29899284	    127.27224775	     89.92822270	     79.18590229	     -0.18622696	     78.42209195	    122.25992319	     77.52321406
      4.35000000	    -13.06064558	     -4.05793549	     -1.64479005	     -0.05452854	      0.89447474	     -0.02545380	     64.13159606	     -0.73339939	      2.13610478	     20.90753461	      0.36490532	      2.28453905	    -11.39670837	     -7.49999987	     48.29402253	      3.84569681	      3.41756987	     57.75218216	      1.00796573	     22.91344851	     -5.19128421	     -7.49999987	    -21.04548088	      0.48705437	      3.16483312	     78.87089710	      0.73436978	     69.13072998	    127.53047136	     88.64077805	     80.05724874	     -0.09587249	     78.37349824	    122.39304881	     76.44614243
      4.36666670	    -13.19446688	     -4.02638973	     -1.61917465	     -0.05554113	      0.88948099	     -0.02539215	     65.00402919	     -0.87879923	      2.31523530	     21.55774758	      0.37625367	      2.17490645	    -11.38972130	     -7.49999987	     49.24113552	      3.84962232	      3.15819394	     58.82024378	      1.02660692	     23.34943018	     -5.67366031	     -7.49999987	    -21.50521967	      0.47877351	      3.09874559	     79.59309653	      0.75360354	     68.90960347	    127.71597943	     87.49797894	     80.85342679	     -0.17133499	     78.04977239	    122.12536273	     75.41805396
      4.38333330	    -13.66349701	     -3.75198396	     -1.53948854	     -0.05688387	      0.88433020	     -0.02491479	     66.13533704	     -1.21011020	      2.59797157	     22.22703861	      0.38793501	      2.02575077	    -11.96174221	     -7.49999987	     50.42973307	      4.10515233	      2.83827918	     59.82115560	      1.04407613	     24.00243196	     -5.47615377	     -7.49999987	    -21.58154120	      0.23669347	      2.76282882	     80.25843723	      0.97620865	     69.05706551	    127.55619528	     89.62907488	     81.62389996	     -0.40099928	     78.23922312	    122.33941460	     77.01859576
